<svg id="visual" viewBox="0 0 960 540" width="960" height="540" xmlns="http://www.w3.org/2000/svg" xmlns:xlink="http://www.w3.org/1999/xlink" version="1.1"><rect x="0" y="0" width="960" height="540" fill="#001220"></rect><defs><linearGradient id="grad1_0" x1="43.8%" y1="0%" x2="100%" y2="100%"><stop offset="14.444444444444446%" stop-color="#001220" stop-opacity="1"></stop><stop offset="85.55555555555554%" stop-color="#001220" stop-opacity="1"></stop></linearGradient></defs><defs><linearGradient id="grad2_0" x1="0%" y1="0%" x2="56.3%" y2="100%"><stop offset="14.444444444444446%" stop-color="#001220" stop-opacity="1"></stop><stop offset="85.55555555555554%" stop-color="#001220" stop-opacity="1"></stop></linearGradient></defs><g transform="translate(960, 0)"><path d="M0 486C-69.6 486.3 -139.3 486.6 -186 449C-232.7 411.4 -256.5 335.9 -282.1 282.1C-307.8 228.4 -335.3 196.5 -369.6 153.1C-403.8 109.7 -444.9 54.8 -486 0L0 0Z" fill="#a916f4"></path></g><g transform="translate(0, 540)"><path d="M0 -486C60.8 -465.6 121.5 -445.2 172.6 -416.7C223.7 -388.1 265.1 -351.4 314 -314C362.8 -276.5 419.1 -238.4 449 -186C478.9 -133.5 482.5 -66.8 486 0L0 0Z" fill="#a916f4"></path></g></svg>